<?xml version="1.0" encoding="UTF-8"?>
<svg id="Layer_2" data-name="Layer 2" xmlns="http://www.w3.org/2000/svg" xmlns:xlink="http://www.w3.org/1999/xlink" viewBox="0 0 265.25 133.9">
  <defs>
    <style>
      .cls-1 {
        fill: none;
      }

      .cls-2 {
        clip-path: url(#clippath-1);
      }

      .cls-3 {
        fill: #3f3e2a;
      }

      .cls-4 {
        clip-path: url(#clippath);
      }
    </style>
    <clipPath id="clippath">
      <rect class="cls-1" x="0" width="265.25" height="133.9"/>
    </clipPath>
    <clipPath id="clippath-1">
      <rect class="cls-1" x="0" width="265.25" height="133.9"/>
    </clipPath>
  </defs>
  <g id="Capa_1" data-name="Capa 1">
    <g class="cls-4">
      <polygon class="cls-3" points="63.09 67.39 63.06 68.11 57.33 68.11 57.33 61.81 58.12 61.81 58.12 67.39 63.09 67.39"/>
      <g class="cls-2">
        <path class="cls-3" d="M75.65,65.03c0,2.25-1.39,3.21-3.64,3.21s-3.65-.96-3.65-3.21v-3.22h.79v3.23c0,1.68.97,2.5,2.86,2.5s2.82-.84,2.82-2.5v-3.23h.82v3.22Z"/>
        <polygon class="cls-3" points="85.94 64.81 89.28 68.11 88.26 68.11 85.29 65.22 82.44 68.11 81.39 68.11 84.65 64.84 81.54 61.81 82.62 61.81 85.31 64.44 87.98 61.81 89.02 61.81 85.94 64.81"/>
        <path class="cls-3" d="M102.33,65.03c0,2.25-1.39,3.21-3.64,3.21s-3.65-.96-3.65-3.21v-3.22h.8v3.23c0,1.68.96,2.5,2.85,2.5s2.82-.84,2.82-2.5v-3.23h.82v3.22Z"/>
        <path class="cls-3" d="M112.19,62.46h-2.56v2.44h2.48c1.41,0,1.93-.48,1.93-1.26,0-.73-.48-1.18-1.85-1.18M112.91,65.31v.03l.53.57,2.06,2.21h-1.04l-2.31-2.61h-2.52v2.61h-.81v-6.29h3.4c1.84,0,2.66.73,2.66,1.79,0,.91-.68,1.59-1.97,1.7"/>
        <polygon class="cls-3" points="121.25 61.81 124.22 65.27 127.16 61.81 128.14 61.81 124.62 65.85 124.62 68.11 123.78 68.11 123.78 65.85 120.23 61.81 121.25 61.81"/>
        <polygon class="cls-3" points="148.27 68.11 148.27 65.19 142.84 65.19 142.84 68.11 142.05 68.11 142.05 61.81 142.84 61.81 142.84 64.5 148.27 64.5 148.27 61.81 149.08 61.81 149.08 68.11 148.27 68.11"/>
        <path class="cls-3" d="M158.81,62.39c-2.23,0-3.11.83-3.11,2.57s.88,2.59,3.11,2.59,3.09-.87,3.09-2.59-.88-2.57-3.09-2.57M158.81,68.24c-2.85,0-3.94-1.24-3.94-3.28s1.09-3.25,3.94-3.25,3.91,1.22,3.91,3.25-1.06,3.28-3.91,3.28"/>
        <polygon class="cls-3" points="171.19 62.52 171.19 68.11 170.4 68.11 170.4 62.52 167.31 62.52 167.32 61.81 174.26 61.81 174.28 62.52 171.19 62.52"/>
        <polygon class="cls-3" points="185.73 67.41 185.69 68.11 179.6 68.11 179.6 61.81 185.48 61.81 185.5 62.51 180.38 62.51 180.38 64.53 184.8 64.53 184.8 65.11 180.38 65.11 180.38 67.41 185.73 67.41"/>
        <polygon class="cls-3" points="197.5 67.39 197.48 68.11 191.73 68.11 191.73 61.81 192.53 61.81 192.53 67.39 197.5 67.39"/>
        <path class="cls-3" d="M204.98,68.24c-1.09,0-2-.24-2.78-.61l.14-.68c.81.4,1.67.63,2.69.63,1.48,0,2.26-.6,2.26-1.28,0-1.63-5-.45-5-2.78,0-.86.81-1.83,2.93-1.83.96,0,1.84.16,2.55.45l-.13.63c-.82-.26-1.53-.4-2.42-.4-1.58,0-2.15.61-2.15,1.09,0,1.57,5,.34,5,2.79,0,1.05-1.06,1.98-3.1,1.98"/>
        <path class="cls-3" d="M224.39,50.13c.15-1.41.32-3.41.32-5.45,0-3.5-.51-6.85-.51-7.41h-1.71c0,.56-.51,3.91-.51,7.41s.51,6.85.51,7.4h14.76v-1.94h-12.86Z"/>
        <path class="cls-3" d="M190.07,50.13c.14-1.22.29-2.91.33-4.69h9.55v-1.93h-9.57c-.05-1.61-.19-3.15-.32-4.31h13.46v-1.94h-15.35c0,.56-.52,3.91-.52,7.41s.52,6.85.52,7.4h15.72v-1.94h-13.84Z"/>
        <path class="cls-3" d="M171.06,37.26h-17.36v1.94h7.64c-.15,1.42-.33,3.43-.33,5.48,0,3.48.53,6.85.53,7.4h1.69c0-.55.53-3.92.53-7.4,0-2.05-.17-4.06-.34-5.48h7.64v-1.94Z"/>
        <path class="cls-3" d="M135.88,52.08c0-.55.52-3.92.52-7.4s-.52-6.85-.52-7.42h-1.69c0,.57-.53,3.92-.53,7.42s.53,6.85.53,7.4h1.69Z"/>
        <path class="cls-3" d="M116.25,39.2v-1.94h-14.75c0,.57-.52,3.92-.52,7.42s.52,6.85.52,7.4h1.69c0-.5.43-3.31.52-6.44h8.53v-1.94h-8.53c-.04-1.69-.2-3.3-.32-4.5h12.85Z"/>
        <path class="cls-3" d="M72.73,50.47c-2.55,0-7.31-3.94-7.31-5.79s4.75-5.82,7.31-5.82,7.3,3.95,7.3,5.82-4.75,5.79-7.3,5.79M72.73,36.47c-2.88,0-10.01,5.84-10.01,8.21s7.12,8.19,10.01,8.19,9.98-5.82,9.98-8.19-7.1-8.21-9.98-8.21"/>
        <path class="cls-3" d="M44.34,45.19c-3.51-2.15-11.6-2.36-11.6-4.43,0-1.08,2.54-2.14,5.47-2.03,1.65.06,4.24.66,6.02,2.03l1.16-1.71c-2.43-1.58-5.15-2.14-7.51-2.19-5.08-.08-7.92,2.43-7.92,4.04,0,1.34,1.65,2.51,3,3.06,4.9,2.03,10.3,1.99,10.3,4.07,0,1.2-2.29,2.56-5.45,2.5-2.29-.04-5.18-1.02-6.93-2.48l-1.25,1.82c1.79,1.27,5.01,2.63,8.18,2.63s5.37-.81,6.8-1.95c1.42-1.15,1.65-2.26,1.65-2.72,0-.66-.58-1.79-1.9-2.64"/>
        <polygon class="cls-3" points="59.46 96.86 59.43 97.95 53.33 97.95 53.33 90.96 54.59 90.96 54.59 96.86 59.46 96.86"/>
        <path class="cls-3" d="M67.24,96.58h-4.28l-.76,1.37h-1.26l3.53-6.05h1.29l3.57,6.05h-1.34l-.75-1.37ZM64.76,93.35l-1.32,2.39h3.35l-1.31-2.39-.33-.67h-.03l-.35.67Z"/>
        <path class="cls-3" d="M81.28,94.97v.02s.49.56.49.56l2.1,2.41h-1.56l-2.15-2.71h-2.3v2.71h-1.27v-6.99h3.62c2.03,0,3,.79,3,2.08,0,1-.67,1.78-1.94,1.93M80.18,91.94h-2.31v2.4h2.22c1.28,0,1.82-.43,1.82-1.25,0-.74-.5-1.15-1.72-1.15"/>
        <polygon class="cls-3" points="92.2 97.02 92.17 97.95 86.25 97.95 86.25 91.9 91.98 91.9 92.01 92.84 87.39 92.84 87.39 94.43 91.35 94.43 91.35 95.23 87.39 95.23 87.39 97.02 92.2 97.02"/>
        <path class="cls-3" d="M97.18,98.07c-1.05,0-1.94-.21-2.7-.57l.17-.95c.78.4,1.61.61,2.58.61,1.25,0,1.87-.46,1.87-.97,0-1.28-4.55-.29-4.55-2.55,0-.9.79-1.85,2.9-1.85.89,0,1.79.14,2.48.41l-.16.9c-.8-.24-1.52-.37-2.32-.37-1.36,0-1.8.47-1.8.85,0,1.25,4.55.19,4.55,2.54,0,1.09-1.08,1.96-3.02,1.96"/>
        <polygon class="cls-3" points="108.88 97.02 108.84 97.95 102.92 97.95 102.92 91.9 108.65 91.9 108.68 92.84 104.07 92.84 104.07 94.43 108.02 94.43 108.02 95.23 104.07 95.23 104.07 97.02 108.88 97.02"/>
        <path class="cls-3" d="M115.87,95.4v.02s2.33,2.54,2.33,2.54h-1.44l-1.94-2.3h-2.08v2.3h-1.16v-6.05h3.3c1.84,0,2.72.72,2.72,1.82,0,.84-.61,1.53-1.73,1.68M114.84,92.77h-2.1v2.08h2.03c1.17,0,1.63-.39,1.63-1.08,0-.62-.41-1-1.57-1"/>
        <polygon class="cls-3" points="127.7 91.9 124.29 97.95 123.08 97.95 119.66 91.9 120.98 91.9 123.35 96.39 123.68 97.07 123.71 97.07 124.05 96.39 126.43 91.9 127.7 91.9"/>
        <path class="cls-3" d="M134.9,96.58h-4.28l-.76,1.37h-1.26l3.53-6.05h1.29l3.57,6.05h-1.34l-.75-1.37ZM132.42,93.35l-1.32,2.39h3.35l-1.3-2.39-.33-.67h-.03l-.35.67Z"/>
        <path class="cls-3" d="M150.4,92.27c-.57-.2-1.36-.36-2.25-.36-2.23,0-3.08.81-3.08,2.53s.89,2.6,3.13,2.6c.84,0,1.59-.19,2.22-.45l.17.95c-.67.31-1.63.56-2.54.56-2.95,0-4.31-1.36-4.31-3.67,0-2.17,1.32-3.6,4.4-3.6.88,0,1.83.18,2.41.39l-.15,1.04Z"/>
        <path class="cls-3" d="M158.57,96.58h-4.28l-.76,1.37h-1.26l3.53-6.05h1.29l3.57,6.05h-1.34l-.75-1.37ZM156.09,93.35l-1.32,2.39h3.35l-1.3-2.39-.33-.67h-.03l-.35.67Z"/>
        <path class="cls-3" d="M167.25,95.4v.02s2.33,2.54,2.33,2.54h-1.44l-1.94-2.3h-2.08v2.3h-1.16v-6.05h3.3c1.84,0,2.72.72,2.72,1.82,0,.84-.61,1.53-1.73,1.68M166.22,92.77h-2.1v2.08h2.03c1.17,0,1.63-.39,1.63-1.08,0-.62-.41-1-1.57-1"/>
        <path class="cls-3" d="M175.41,97.95h-3.31v-6.05h3.31c2.67,0,3.79,1.21,3.79,3.03,0,1.96-1.31,3.02-3.79,3.02M175.36,92.87h-2.12v4.11h2.12c1.82,0,2.64-.61,2.64-2.06,0-1.34-.74-2.05-2.64-2.05"/>
        <path class="cls-3" d="M186.93,96.58h-4.28l-.76,1.37h-1.26l3.53-6.05h1.29l3.57,6.05h-1.34l-.75-1.37ZM184.45,93.35l-1.32,2.39h3.35l-1.3-2.39-.33-.67h-.03l-.35.67Z"/>
        <polygon class="cls-3" points="196.9 96.98 196.87 97.95 191.32 97.95 191.32 91.9 192.47 91.9 192.47 96.98 196.9 96.98"/>
        <polygon class="cls-3" points="205.29 97.02 205.26 97.95 199.34 97.95 199.34 91.9 205.07 91.9 205.1 92.84 200.48 92.84 200.48 94.43 204.44 94.43 204.44 95.23 200.48 95.23 200.48 97.02 205.29 97.02"/>
        <path class="cls-3" d="M210.27,98.07c-1.05,0-1.94-.21-2.7-.57l.17-.95c.78.4,1.61.61,2.58.61,1.25,0,1.87-.46,1.87-.97,0-1.28-4.55-.29-4.55-2.55,0-.9.79-1.85,2.9-1.85.89,0,1.79.14,2.48.41l-.16.9c-.8-.24-1.52-.37-2.32-.37-1.36,0-1.8.47-1.8.85,0,1.25,4.55.19,4.55,2.54,0,1.09-1.08,1.96-3.02,1.96"/>
      </g>
    </g>
  </g>
</svg>