<svg width="112" height="54" viewBox="0 0 112 54" fill="none" xmlns="http://www.w3.org/2000/svg">
<g clip-path="url(#clip0_136_2243)">
<path d="M49.8015 0.0270458C51.7737 -0.191752 53.8709 1.18644 55.4829 2.14382C57.1079 1.2177 59.1838 -0.176123 61.1524 0.0183634C63.8634 0.285782 70.0454 4.66463 71.2338 7.07024C71.5282 7.66586 71.5958 8.06467 71.3487 8.6927C70.3706 11.1747 63.7911 15.7492 61.0997 15.9859C59.1957 16.1532 57.0765 14.7936 55.5214 13.8541C53.8999 14.7779 51.814 16.1746 49.8519 15.9796C47.1012 15.707 41.264 11.5006 39.8967 9.15171C39.3813 8.26726 39.3623 7.77641 39.8736 6.88096C41.222 4.52223 47.0574 0.33151 49.8015 0.0270458ZM50.0397 1.93892C47.7879 2.07726 43.7244 4.83249 42.4797 6.64943C41.9904 7.36371 41.7516 7.86671 42.1219 8.71412C43.036 10.8066 47.936 14.1019 50.2589 14.0816C51.4023 14.0718 53.0202 13.3951 53.961 12.774C52.907 11.9683 51.8555 11.1244 51.0012 10.1097C50.5735 9.60146 49.8827 8.69907 49.8696 8.02704C49.8483 6.96489 51.4739 5.31407 52.2429 4.61137C52.7838 4.11705 53.3851 3.67772 53.9604 3.22276C52.9532 2.55537 51.2624 1.86251 50.0397 1.93776V1.93892ZM60.5849 1.93892C59.4261 2.00548 57.993 2.58952 57.0434 3.22392C58.0914 4.03602 59.1512 4.87185 60.0031 5.88769C60.4475 6.41732 61.137 7.3255 61.1347 8.02762C61.1323 8.68402 60.4214 9.61304 60.0031 10.1097C59.1488 11.1244 58.0937 11.9625 57.0434 12.774C57.9918 13.4015 59.6495 14.0914 60.8041 14.0816C63.0737 14.0619 68.0631 10.7545 68.902 8.67475C69.1781 7.98942 69.0756 7.59813 68.7237 6.97589C67.5992 4.98588 62.9339 1.80405 60.5855 1.93834L60.5849 1.93892ZM55.4266 4.24497C54.4272 4.96157 52.2856 6.72352 52.3093 8.02184C52.3294 9.11872 54.0392 10.7105 54.8816 11.3542C55.0084 11.4508 55.4089 11.7761 55.5285 11.764C55.6642 11.7507 56.8633 10.7452 57.0434 10.5751C57.6233 10.0263 58.6802 8.83741 58.6891 8.02762C58.6998 7.00773 57.2685 5.58381 56.5102 4.95867C56.3247 4.80586 55.7922 4.3428 55.618 4.26581C55.5522 4.23687 55.4983 4.21545 55.4266 4.2444V4.24497Z" fill="white"/>
</g>
<rect x="0.5" y="29.041" width="111" height="24.9184" fill="white"/>
<defs>
<clipPath id="clip0_136_2243">
<rect width="32" height="16" fill="white" transform="translate(39.5)"/>
</clipPath>
</defs>
</svg>